<svg xmlns="http://www.w3.org/2000/svg" viewBox="0 0 800 240" fill="none">
  <defs>
    <linearGradient id="accent-light" x1="0" y1="0" x2="1" y2="1">
      <stop offset="0%" stop-color="#6366f1"/>
      <stop offset="100%" stop-color="#818cf8"/>
    </linearGradient>
    <linearGradient id="chartreuse-light" x1="0" y1="0" x2="1" y2="0">
      <stop offset="0%" stop-color="#a3e635"/>
      <stop offset="100%" stop-color="#84cc16"/>
    </linearGradient>
  </defs>
  <!-- Radar / Shield Icon -->
  <g transform="translate(40, 20)">
    <circle cx="100" cy="100" r="90" stroke="url(#accent-light)" stroke-width="2.5" fill="none" opacity="0.25"/>
    <circle cx="100" cy="100" r="70" stroke="url(#accent-light)" stroke-width="1.5" fill="none" opacity="0.20"/>
    <circle cx="100" cy="100" r="50" stroke="url(#accent-light)" stroke-width="1" fill="none" opacity="0.15"/>
    <path d="M100 100 L100 15 A85 85 0 0 1 185 100 Z" fill="url(#accent-light)" opacity="0.08"/>
    <line x1="100" y1="10" x2="100" y2="190" stroke="url(#accent-light)" stroke-width="0.75" opacity="0.30"/>
    <line x1="10" y1="100" x2="190" y2="100" stroke="url(#accent-light)" stroke-width="0.75" opacity="0.30"/>
    <path d="M100 40 C120 40 135 55 135 75 C135 95 120 115 100 135 C80 115 65 95 65 75 C65 55 80 40 100 40Z" stroke="url(#accent-light)" stroke-width="3" fill="url(#accent-light)" fill-opacity="0.08"/>
    <rect x="90" y="85" width="20" height="16" rx="2" stroke="url(#accent-light)" stroke-width="2" fill="none"/>
    <path d="M95 85V78C95 72 100 68 100 68C100 68 105 72 105 78V85" stroke="url(#accent-light)" stroke-width="2" fill="none" stroke-linecap="round"/>
    <circle cx="100" cy="15" r="3" fill="url(#chartreuse-light)" opacity="0.8"/>
    <circle cx="185" cy="100" r="2.5" fill="url(#chartreuse-light)" opacity="0.6"/>
    <circle cx="15" cy="100" r="2" fill="url(#chartreuse-light)" opacity="0.4"/>
    <circle cx="100" cy="185" r="2" fill="url(#chartreuse-light)" opacity="0.3"/>
    <circle cx="100" cy="75" r="3" fill="url(#chartreuse-light)" opacity="0.9"/>
  </g>
  <g transform="translate(180, 45)">
    <text x="0" y="45" font-family="'DM Sans','Inter',sans-serif" font-weight="800" font-size="52" letter-spacing="4" fill="#111113">SCAUDIT</text>
    <text x="2" y="78" font-family="'Inter',sans-serif" font-weight="400" font-size="18" letter-spacing="6" fill="#52525b" opacity="0.8">ENTERPRISE NETWORK INTELLIGENCE</text>
    <line x1="0" y1="95" x2="320" y2="95" stroke="url(#chartreuse-light)" stroke-width="2.5" stroke-linecap="round"/>
    <line x1="325" y1="95" x2="380" y2="95" stroke="url(#accent-light)" stroke-width="2.5" stroke-linecap="round" opacity="0.4"/>
  </g>
</svg>
